<svg version="1.1" xmlns="http://www.w3.org/2000/svg" xmlns:xlink="http://www.w3.org/1999/xlink" width="185.0198" height="268.10136" viewBox="0,0,185.0198,268.10136"><defs><linearGradient x1="232.27629" y1="67.56209" x2="234.21904" y2="155.40333" gradientUnits="userSpaceOnUse" id="color-1"><stop offset="0" stop-color="#7a6306"/><stop offset="1" stop-color="#100f03"/></linearGradient><linearGradient x1="233.82414" y1="104.45384" x2="234.7858" y2="147.93551" gradientUnits="userSpaceOnUse" id="color-2"><stop offset="0" stop-color="#520000" stop-opacity="0"/><stop offset="1" stop-color="#520000"/></linearGradient><linearGradient x1="210.82376" y1="158.34142" x2="210.4072" y2="150.67359" gradientUnits="userSpaceOnUse" id="color-3"><stop offset="0" stop-color="#ffffff"/><stop offset="1" stop-color="#000000"/></linearGradient><linearGradient x1="217.0422" y1="160.00996" x2="216.62562" y2="152.34213" gradientUnits="userSpaceOnUse" id="color-4"><stop offset="0" stop-color="#ffffff"/><stop offset="1" stop-color="#000000"/></linearGradient><linearGradient x1="224.32511" y1="162.10197" x2="223.90851" y2="154.43417" gradientUnits="userSpaceOnUse" id="color-5"><stop offset="0" stop-color="#ffffff"/><stop offset="1" stop-color="#000000"/></linearGradient><linearGradient x1="231.67906" y1="163.63655" x2="231.26249" y2="155.96872" gradientUnits="userSpaceOnUse" id="color-6"><stop offset="0" stop-color="#ffffff"/><stop offset="1" stop-color="#000000"/></linearGradient><linearGradient x1="239.55678" y1="163.25604" x2="239.1402" y2="155.58824" gradientUnits="userSpaceOnUse" id="color-7"><stop offset="0" stop-color="#ffffff"/><stop offset="1" stop-color="#000000"/></linearGradient><linearGradient x1="246.27269" y1="161.02217" x2="245.8561" y2="153.35436" gradientUnits="userSpaceOnUse" id="color-8"><stop offset="0" stop-color="#ffffff"/><stop offset="1" stop-color="#000000"/></linearGradient><linearGradient x1="253.53857" y1="158.86064" x2="253.12201" y2="151.19285" gradientUnits="userSpaceOnUse" id="color-9"><stop offset="0" stop-color="#ffffff"/><stop offset="1" stop-color="#000000"/></linearGradient><linearGradient x1="210.39529" y1="174.86343" x2="208.06981" y2="182.17041" gradientUnits="userSpaceOnUse" id="color-10"><stop offset="0" stop-color="#ffffff"/><stop offset="1" stop-color="#000000"/></linearGradient><linearGradient x1="217.66896" y1="179.22159" x2="215.34344" y2="186.5286" gradientUnits="userSpaceOnUse" id="color-11"><stop offset="0" stop-color="#ffffff"/><stop offset="1" stop-color="#000000"/></linearGradient><linearGradient x1="225.59623" y1="180.35271" x2="225.26716" y2="188.02442" gradientUnits="userSpaceOnUse" id="color-12"><stop offset="0" stop-color="#ffffff"/><stop offset="1" stop-color="#000000"/></linearGradient><linearGradient x1="233.38523" y1="180.25702" x2="233.1804" y2="187.93326" gradientUnits="userSpaceOnUse" id="color-13"><stop offset="0" stop-color="#ffffff"/><stop offset="1" stop-color="#000000"/></linearGradient><linearGradient x1="241.74186" y1="180.50639" x2="241.53704" y2="188.18266" gradientUnits="userSpaceOnUse" id="color-14"><stop offset="0" stop-color="#ffffff"/><stop offset="1" stop-color="#000000"/></linearGradient><linearGradient x1="248.97396" y1="177.85044" x2="250.25009" y2="185.42066" gradientUnits="userSpaceOnUse" id="color-15"><stop offset="0" stop-color="#ffffff"/><stop offset="1" stop-color="#000000"/></linearGradient><linearGradient x1="255.73217" y1="173.77889" x2="258.08113" y2="181.08099" gradientUnits="userSpaceOnUse" id="color-16"><stop offset="0" stop-color="#ffffff"/><stop offset="1" stop-color="#000000"/></linearGradient><linearGradient x1="253.24064" y1="98.33802" x2="253.09995" y2="136.48307" gradientUnits="userSpaceOnUse" id="color-17"><stop offset="0" stop-color="#ffffff"/><stop offset="1" stop-color="#422927"/></linearGradient><linearGradient x1="209.03797" y1="99.29587" x2="208.89726" y2="137.44089" gradientUnits="userSpaceOnUse" id="color-18"><stop offset="0" stop-color="#ffffff"/><stop offset="1" stop-color="#422927"/></linearGradient></defs><g transform="translate(-139.56263,-33.76999)"><g data-paper-data="{&quot;isPaintingLayer&quot;:true}" stroke-miterlimit="10" stroke-dasharray="" stroke-dashoffset="0" style="mix-blend-mode: normal"><g fill-rule="nonzero" stroke="none" stroke-linecap="butt" stroke-linejoin="miter"><path d="M201.51654,301.87136l11.05755,-131.83807c0.21926,0.00815 0.43278,0.01837 0.63763,0.03347c4.19311,0.30916 8.40955,-0.07012 12.61345,0c9.04712,0.15092 18.689,0.36832 27.68175,0.55966c0.22227,0.00473 0.4473,0.01359 0.67447,0.02523l10.01845,130.52983z" fill="#1d1d1d" stroke-width="0"/><path d="" fill="#1d1d1d" stroke-width="0"/><path d="M207.47538,230.04987l4.35805,-56.87255h43.43522l4.06752,56.87255z" fill="#0a0500" stroke-width="0"/><path d="M204.64265,233.75421l1.96112,-11.54883c0,0 8.42841,6.63018 25.92815,6.86749c16.55478,0.2245 27.24006,-6.64959 27.24006,-6.64959l1.52532,12.42045c0,0 -9.24579,5.75668 -28.54724,5.55229c-17.89661,-0.18952 -28.10741,-6.6418 -28.10741,-6.6418z" fill="#583c03" stroke-width="0"/><path d="M206.38586,222.42328l1.8706,-11.54883c0,0 8.03941,6.63018 24.73146,6.86749c15.79071,0.2245 25.98282,-6.64959 25.98282,-6.64959l1.45491,12.42045c0,0 -8.81906,5.75668 -27.22967,5.55229c-17.07062,-0.18952 -26.81015,-6.6418 -26.81015,-6.6418z" fill="#322200" stroke-width="0"/><path d="M219.82261,182.7313c0.97125,-1.37425 2.39542,-2.79397 3.18893,-3.89974c0.37451,-0.52189 0.11909,-1.19682 0.93417,-1.60436c0.51475,-1.07431 2.19508,-1.59218 3.27912,-1.86436c3.18664,-0.80009 6.08385,-0.0065 9.23157,-0.0065c4.34561,0 9.08692,2.13582 12.52925,4.50544c0.29853,0.62306 0.74994,0.52976 0.96904,1.27779c0.83033,2.83489 -0.42414,6.56119 -0.42414,9.46994c0,3.30191 0.10295,6.62323 -0.01166,9.92339c0.53359,1.06716 0.38303,2.55874 0.65371,3.70434c0.48336,2.04571 1.53698,3.55587 1.53698,5.76559c-0.02521,1.15858 -1.01661,3.79489 -2.49706,3.47478c-1.1129,-0.24063 -1.5078,-1.37704 -2.16916,-2.07711c-0.77386,-0.81915 -2.08981,-1.00115 -3.05064,-1.52532c-0.22681,-0.60966 -1.64059,-1.1404 -2.17903,-1.74321c-1.267,-1.41853 0.04349,-6.08363 0.54843,-7.63676c0.7564,-2.20229 0.18262,-5.36368 0.19553,-7.70668c0.00158,-0.28573 -0.16993,-0.77121 -0.24858,-1.21801c-1.28163,2.14592 -3.06344,3.69191 -4.15549,5.98886c-1.53306,2.8484 -2.13302,6.16466 -2.13302,9.39281c0,1.64886 0.73112,5.58077 -0.06509,6.9841c-0.41624,0.73363 -1.04553,1.19147 -1.50623,2.1448c-0.55501,0.89666 -1.69344,1.02934 -2.31775,-0.02813c-0.37799,-0.64025 -0.05688,-1.56288 -0.23941,-2.24567c-0.47055,-1.76015 -0.44747,-4.13984 -0.44747,-5.9835c0.01493,-1.54954 -0.13314,-6.21947 -1.53653,-7.25587c-0.12483,-0.09219 -2.15448,-0.16084 -2.38571,-0.15282c-2.48402,-0.05403 -7.45289,-1.10118 -7.69167,2.62605c-0.74089,0.37045 -0.61041,1.68987 -0.81818,2.48584c-0.54166,2.07509 -0.79533,4.8592 -1.74321,6.75497c0,1.57811 -1.40826,4.82794 -3.17462,2.55163c-0.70042,-0.90263 -0.56046,-4.38698 -0.07059,-5.3667c-0.10979,-3.16108 1.18578,-6.16224 1.07785,-9.26967c0,-2.8122 0.20347,-7.21021 1.53698,-9.68784c0,-1.84667 1.26002,-3.46665 1.94953,-5.25436c-0.05177,-0.22188 0.12758,-0.40123 0.12758,-0.40123l0.01193,0.01193c0.19814,-0.60126 0.3191,-1.22407 0.29623,-1.8828c0,0 0,-0.4358 0.4358,-0.4358c0.19533,0 0.30312,0.08755 0.36259,0.18418z" fill="#310408" stroke-width="0.5"/></g><g fill-rule="nonzero" stroke="none" stroke-width="0" stroke-linecap="butt" stroke-linejoin="miter"><path d="M202.66303,67.53467l2.44992,-33.76468l4.51482,33.32003z" fill="#000001"/><path d="M256.7282,68.08258l2.44992,-33.76467l4.51483,33.32003z" fill="#000001"/><path d="M240.60987,75.12305l0.98549,-33.73228l2.78413,33.3583z" fill="#000001"/><path d="M221.72319,75.25015l0.98549,-33.73228l2.78413,33.3583z" fill="#000001"/><path d="M189.09328,84.69004l-28.85613,-30.16621l42.1354,13.01728z" fill="#000001"/><path d="M266.53335,64.66905l41.51869,-14.86743l-27.49421,31.4125z" data-paper-data="{&quot;index&quot;:null}" fill="#000001"/><path d="M165.04716,120.84241c-0.82911,-37.48826 29.65067,-68.5675 68.07849,-69.41739c38.42782,-0.84989 70.25185,28.85138 71.08097,66.33966c0.82911,37.48826 -29.65067,68.5675 -68.07849,69.41739c-38.42782,0.84989 -70.25185,-28.85138 -71.08097,-66.33966z" fill="#000000"/></g><path d="M203.07205,125.60475l-11.19047,90.03002l-21.04593,-89.06392z" fill="#000001" fill-rule="nonzero" stroke="none" stroke-width="0" stroke-linecap="butt" stroke-linejoin="miter"/><path d="M292.51418,122.50658l-17.1921,89.88741l-15.056,-89.4648z" data-paper-data="{&quot;index&quot;:null}" fill="#000001" fill-rule="nonzero" stroke="none" stroke-width="0" stroke-linecap="butt" stroke-linejoin="miter"/><path d="M154.65536,153.78983c-0.10977,-0.04422 -0.21914,-0.09659 -0.32813,-0.15823c1.24098,-0.77215 2.92558,-0.7658 4.44138,-0.77836c-1.16287,0.32862 -2.37868,0.57787 -3.45528,1.11185c-0.221,-0.03199 -0.44029,-0.08757 -0.65799,-0.17526l-0.32813,-0.15823l0.62512,-0.43734c1.60888,-0.84703 3.7236,-0.93227 5.25359,-1.78942c1.96703,-1.03081 3.87978,-2.21364 6.15524,-2.85628c1.37793,-0.38916 2.88953,-0.43162 3.50683,-1.73374c0.72131,-0.01511 1.70366,-1.54919 1.27769,-2.36455c-0.11669,-0.22335 -1.70459,-0.00236 -1.9399,0.00258c-1.97938,0.04148 -3.7992,0.56923 -5.75526,0.61021c-1.0786,0.02248 -1.82892,0.31819 -2.82634,0.53719c-1.81707,0.39895 -3.85461,-0.25584 -5.67085,0.12744c-1.8977,0.40048 -4.48939,0.68708 -6.35611,0.04532l0.70322,-0.74958c3.16423,-1.59378 7.40262,-1.21003 10.49376,-2.92567c2.7396,-0.96147 5.80336,-0.65292 8.60522,-1.4259c1.32842,-0.36649 2.16359,-1.5336 3.6398,-1.54514c0.09851,-0.05389 1.80193,-1.30164 1.47415,-1.50173c-0.23148,-0.1413 -2.26297,0.17509 -2.62568,0.1827c-2.38233,0.04992 -4.62455,0.58652 -6.94889,0.63523c-4.79637,0.10051 -9.4615,0.9327 -14.17749,1.03152c-1.46698,0.01314 -3.39948,-2.24837 -1.28039,-3.03662c0.75195,-0.27972 1.69572,-0.08126 2.44192,-0.29598c2.05141,-0.59033 4.26674,-1.29479 6.43655,-1.37059c1.32966,0.01195 2.7513,-0.77459 4.03961,-1.05223c2.20354,-0.47489 5.16324,-1.06808 7.35082,-1.13932c0.37851,-0.13792 3.77559,-1.60668 2.64696,-2.49952c-0.27035,-0.21387 -2.01629,-0.07488 -2.49351,-0.06488c-2.24812,0.04711 -4.49622,0.09421 -6.74434,0.14133c-2.25758,0.0473 -4.72396,0.05949 -6.9319,-0.35c-2.39467,-0.44412 -4.47047,0.69634 -6.50797,-1.04458l0.93424,-0.67583c2.44123,-0.05831 4.79751,-1.14817 7.19743,-1.12664c0.90517,-0.47655 1.77735,-0.03945 2.68663,-0.3011c2.90035,-0.83464 6.741,-0.37933 9.41357,-1.87658c0.58555,-0.30827 1.36117,-0.5725 1.87798,-0.98235c0.2808,-0.22269 1.18817,-0.54177 0.84952,-0.65907c-1.2465,-0.43179 -2.84377,0.31532 -4.13521,0.03692c-1.67745,-0.36162 -3.48905,-0.5081 -5.2146,-0.861c-3.29659,0.07935 -6.77623,-0.18143 -9.9677,-0.77334c-1.80984,-0.33566 -3.91793,0.46334 -4.77774,-1.45626c3.7914,-2.42181 8.64584,-1.03775 12.4883,-2.98719c1.11058,-0.02327 1.64641,-0.74752 2.67124,-1.03523c2.01722,-0.56627 3.6607,-0.90479 5.45936,-2.01946c0.3911,-0.24238 0.75314,-1.00685 1.18594,-1.44934c-3.76131,-0.10424 -7.57574,-1.59382 -11.31129,-1.44895c-2.77686,-0.09798 -5.27616,-1.10006 -7.95514,-1.5585c-1.31684,-0.22534 -2.59517,-0.34747 -3.79995,-0.88796c-0.01183,0.00024 -0.02366,0.0005 -0.03549,0.00074l-0.18842,-0.10656c-0.18683,-0.09292 -0.37182,-0.19684 -0.55481,-0.31376l0.72499,-0.45109c3.3443,-0.07008 6.68859,-0.14015 10.03291,-0.21023c4.52829,-0.09489 8.52704,-1.15794 12.94885,-1.25059c0.79537,-0.01666 1.52963,-0.05141 2.26169,-0.15377c-1.86036,0.04174 -3.63913,-0.16401 -5.52016,-0.13585c-2.85697,-0.88626 -6.18819,-0.54387 -9.11264,-1.03973c-1.8203,-0.30865 -3.07282,0.22199 -4.24813,-1.48069l1.03116,-0.27903c2.23012,-1.17409 5.29806,-0.93374 7.54484,-2.1166c2.14668,-0.075 4.77187,0.33354 6.85173,-0.14358c0.31866,-0.0731 0.96164,-0.30063 1.59738,-0.46577c-0.31275,-0.04566 -0.62336,-0.11479 -0.93066,-0.18513c-1.01561,-0.52 -2.50723,-0.44086 -3.63156,-0.64181c-3.1971,-0.57137 -6.59526,-1.51164 -9.82409,-1.50783c-0.74791,-0.35457 -1.09366,-0.08474 -1.93232,-0.19829c-2.21303,-0.29961 -4.49495,-1.07606 -6.67336,-1.57988c-1.63142,-0.37732 -2.42926,0.14865 -3.5165,-1.49662l0.88632,-0.28766c0.13512,-0.00009 0.27022,-0.00017 0.40535,-0.00028c1.71047,-0.74354 3.93975,-0.2882 5.7663,-0.64755c3.05172,-0.60038 6.1004,-0.58859 9.22426,-0.65405c2.84166,-0.05955 5.53873,0.14322 8.28168,0.46451c-1.39224,-0.35271 -2.78398,-0.71182 -4.12395,-0.65907c-4.31055,0.06015 -8.54941,-1.7307 -12.86603,-1.70056c-3.34041,-1.58362 -8.2769,-0.37179 -11.15835,-2.98351l0.90643,-0.35473c3.67057,-0.07692 7.34115,-0.15383 11.01171,-0.23075c3.87522,0.03479 7.83229,-1.82358 11.70994,-1.95906c3.26274,-0.06837 6.52547,-0.13674 9.78819,-0.20511c0.2787,-0.00584 0.87103,-0.07372 1.47531,-0.10279c-3.10189,-1.09018 -6.61239,-1.43182 -9.47001,-2.78655c-1.95351,0.04094 -3.57121,-1.44468 -5.42453,-1.84483c-1.59324,-0.34401 -3.70509,-0.66627 -5.16957,-1.36054c-2.96406,0.15095 -4.8712,-1.8377 -7.41889,-2.36981c-0.65833,0.04819 -1.32061,0.09262 -1.99432,0.12139c-0.04795,0.01021 -0.08121,0.0109 -0.08121,0.0109l-0.73412,0.01538l-0.01826,-0.87141c0.36199,-0.00759 0.71979,-0.02088 1.07456,-0.03812c0.10469,-0.2314 0.38854,-0.23735 0.38854,-0.23735c0.50183,-0.01051 0.97239,0.03569 1.42113,0.12227c1.31425,-0.09681 2.614,-0.20682 3.96237,-0.23508c4.73096,-0.09913 9.46192,-0.19827 14.19289,-0.29741c2.33068,-0.04884 5.93913,-0.3549 8.0482,0.61649c1.58457,0.72985 2.73094,1.85889 4.3249,2.67927c1.112,2.11216 3.82346,2.72356 5.28272,4.59409c1.1254,1.44258 1.48505,3.05195 2.33727,4.6624c2.16264,4.29361 2.6705,9.25809 4.24542,13.74564c0.13492,4.82614 0.69628,9.59348 0.79904,14.49701c0.09748,4.65189 -0.04918,9.33578 0.04757,13.9533c0.06325,3.01803 0.12648,6.03606 0.18972,9.05408c0.02963,1.41378 0.40261,3.28728 -0.18207,4.57725c-0.78438,2.24566 -3.71958,4.91595 -6.06228,5.52552c-1.20309,0.31305 -2.10073,1.51289 -3.3951,1.54002c-3.77083,1.98523 -8.74902,2.15349 -13.0282,2.24316c-3.09959,0.06495 -6.1992,0.12991 -9.29878,0.19485c-1.10455,0.02315 -2.15944,0.37704 -3.17788,0.22967c-0.04795,0.02379 -0.09563,0.04813 -0.143,0.07308z" fill="#000000" fill-rule="nonzero" stroke="none" stroke-width="0.5" stroke-linecap="butt" stroke-linejoin="miter"/><path d="M311.81172,150.1353c-0.04841,-0.02288 -0.0971,-0.04515 -0.14602,-0.06686c-1.01115,0.19108 -2.08029,-0.11707 -3.18482,-0.09264c-3.09952,0.06855 -6.19904,0.13711 -9.29855,0.20565c-4.27908,0.09464 -9.2599,0.14084 -13.11269,-1.6802c-1.29434,0.02863 -2.2428,-1.13147 -3.45826,-1.39244c-2.36678,-0.50815 -5.41421,-3.0496 -6.29454,-5.2594c-0.6397,-1.2636 -0.34771,-3.15142 -0.37897,-4.56517c-0.06675,-3.01796 -0.13349,-6.03591 -0.20024,-9.05385c-0.10212,-4.61741 -0.4503,-9.29065 -0.55317,-13.94241c-0.10845,-4.90341 0.24715,-9.69049 0.17418,-14.51797c1.38025,-4.55119 1.67393,-9.53295 3.64972,-13.91567c0.78209,-1.64564 1.07212,-3.269 2.13439,-4.75869c1.37738,-1.93162 4.06002,-2.65917 5.08004,-4.81725c1.55715,-0.88825 2.65385,-2.0656 4.20555,-2.86297c2.0653,-1.06131 5.68358,-0.91087 8.0142,-0.96241c4.73084,-0.10463 9.46169,-0.20925 14.19253,-0.31389c1.34835,-0.02982 2.65162,0.02413 3.96883,0.06428c0.44461,-0.10583 0.91272,-0.17224 1.41455,-0.18333c0,0 0.28385,-0.00628 0.3984,0.2204c0.35517,0.00195 0.71321,-0.00016 1.07522,-0.00817l0.01927,0.87139l-0.7341,0.01623c0,0 -0.03326,0.00074 -0.08162,-0.00739c-0.67432,0.00025 -1.3379,-0.01563 -1.99769,-0.03543c-2.52243,0.64129 -4.34219,2.71021 -7.30999,2.68701c-1.43322,0.75667 -3.52925,1.16957 -5.10621,1.58183c-1.83438,0.47959 -3.38663,2.03344 -5.34008,2.07665c-2.79663,1.4765 -6.28918,1.96894 -9.34126,3.19166c0.60498,0.00304 1.19968,0.04535 1.47837,0.03919c3.26266,-0.07216 6.5253,-0.14432 9.78795,-0.21648c3.87988,-0.03159 7.91331,1.65472 11.78343,1.45313c3.67048,-0.08118 7.34097,-0.16236 11.01145,-0.24354l0.92085,0.3154c-2.76634,2.73335 -7.75042,1.73516 -11.01956,3.46113c-4.31389,0.15573 -8.47175,2.12739 -12.7809,2.25288c-1.341,0.00501 -2.71599,0.42368 -4.09176,0.836c2.72659,-0.43909 5.41241,-0.75776 8.25401,-0.82061c3.12378,-0.06909 6.16912,-0.21212 9.24387,0.25632c1.84033,0.28039 4.04796,-0.27053 5.78883,0.3987c0.13499,-0.00573 0.26998,-0.01146 0.40499,-0.01718l0.89789,0.24923c-1.01538,1.69055 -1.83516,1.19943 -3.44881,1.64662c-2.1547,0.59713 -4.40108,1.47109 -6.59917,1.86573c-0.83301,0.14954 -1.19005,-0.10515 -1.922,0.28129c-3.22599,0.13519 -6.58053,1.22088 -9.75007,1.92938c-1.11463,0.24915 -2.60828,0.23431 -3.60056,0.79755c-0.30399,0.08351 -0.61133,0.16595 -0.92182,0.22504c0.64226,0.13761 1.29444,0.33725 1.61594,0.39657c2.09849,0.38713 4.70365,-0.13405 6.85156,-0.15153c2.29561,1.08504 5.35036,0.71283 7.62896,1.78982l1.04223,0.23438c-1.10091,1.75168 -2.37513,1.27549 -4.18044,1.6622c-2.9004,0.6213 -6.24325,0.42263 -9.05944,1.43107c-1.8805,0.05284 -3.64875,0.33498 -5.50918,0.37337c0.7358,0.07074 1.47088,0.07384 2.26622,0.05625c4.42169,-0.0978 8.4625,0.79212 12.99068,0.69197c3.34421,-0.07397 6.68843,-0.14792 10.03264,-0.22189l0.74373,0.41946c-0.17779,0.1247 -0.35814,0.23649 -0.5408,0.33735l-0.18366,0.11457c-0.01183,0.00026 -0.02366,0.00053 -0.03549,0.00078c-1.1804,0.59186 -2.45228,0.76891 -3.7582,1.05074c-2.65677,0.57333 -5.11061,1.68209 -7.88068,1.89953c-3.73833,0.01609 -7.48508,1.6685 -11.23842,1.93457c0.45145,0.42343 0.84608,1.17162 1.24723,1.39692c1.84498,1.03621 3.5015,1.30364 5.54123,1.78255c1.03628,0.2433 1.60278,0.94383 2.71334,0.91926c3.9228,1.78221 8.71317,0.19044 12.60532,2.44679c-0.77636,1.95483 -2.9169,1.24734 -4.71061,1.66061c-3.16303,0.72875 -6.6282,1.1391 -9.92515,1.20174c-1.70875,0.42685 -3.51238,0.65119 -5.17269,1.08469c-1.27824,0.33374 -2.90619,-0.34392 -4.13296,0.14114c-0.3333,0.1318 0.58695,0.41149 0.8771,0.6219c0.53398,0.38722 1.32025,0.6178 1.91854,0.90057c2.73455,1.38081 6.55204,0.76059 9.48563,1.46959c0.91969,0.22228 1.77225,-0.25197 2.69709,0.18517c2.39677,-0.12486 4.79778,0.86257 7.23927,0.81573l0.96247,0.63498c-1.96068,1.82703 -4.08364,0.77697 -6.45697,1.32378c-2.18827,0.50416 -4.65288,0.59817 -6.91041,0.64811c-2.24806,0.04972 -4.49611,0.09943 -6.74417,0.14916c-0.47722,0.01055 -2.22751,-0.05315 -2.48841,0.17217c-1.08913,0.94059 2.36803,2.26176 2.75213,2.38326c2.18863,-0.02301 5.17111,0.44222 7.39306,0.8218c1.29907,0.22192 2.75326,0.94652 4.08117,0.87735c2.17107,-0.01767 4.41466,0.59075 6.48959,1.09222c0.75474,0.1824 1.68909,-0.0565 2.4524,0.19058c2.15107,0.6963 0.3177,3.03889 -1.14848,3.08893c-4.71589,0.10429 -9.41251,-0.52628 -14.20876,-0.4202c-2.32427,0.0514 -4.58752,-0.38818 -6.9698,-0.33549c-0.3627,0.00802 -2.40594,-0.22061 -2.63111,-0.06948c-0.31888,0.21402 1.43667,1.38727 1.53742,1.43688c1.47535,-0.05202 2.36001,1.07806 3.70296,1.38702c2.83255,0.65165 5.88016,0.21148 8.65863,1.05411c3.16211,1.58097 7.38007,1.01509 10.60999,2.47117l0.73484,0.71862c-1.83737,0.72154 -4.43897,0.54677 -6.35216,0.22836c-1.83105,-0.30474 -3.83852,0.43718 -5.67108,0.11682c-1.00594,-0.17585 -1.76828,-0.43898 -2.84684,-0.41501c-1.95602,0.04326 -3.79688,-0.40566 -5.7762,-0.36187c-0.23531,0.00521 -1.83125,-0.14723 -1.93822,0.08095c-0.39048,0.83294 0.65702,2.32332 1.37831,2.30737c0.67279,1.27433 2.1848,1.25167 3.57822,1.58114c2.30104,0.54408 4.26294,1.64345 6.2725,2.58864c1.56546,0.79048 3.6819,0.78461 5.32575,1.56159l0.64337,0.41003l-0.321,0.17221c-0.21372,0.09699 -0.43042,0.16196 -0.64985,0.20343c-1.09859,-0.48713 -2.324,-0.68382 -3.49992,-0.96208c1.51495,-0.05271 3.19771,-0.13158 4.47077,0.58644c-0.10622,0.06627 -0.21324,0.12332 -0.321,0.17221z" data-paper-data="{&quot;index&quot;:null}" fill="#000000" fill-rule="nonzero" stroke="none" stroke-width="0.5" stroke-linecap="butt" stroke-linejoin="miter"/><g stroke-width="0"><path d="M172.99512,68.87319l118.56238,-2.62219c7.18311,-0.15886 13.10667,6.08019 13.28158,13.98889l1.31129,59.28992c0.17491,7.90871 -5.46705,14.40354 -12.65012,14.5624l-118.56237,2.62219c-7.18309,0.15886 -13.1067,-6.08018 -13.28161,-13.98889l-1.31129,-59.28992c-0.17491,-7.90869 5.46706,-14.40354 12.65015,-14.56241z" fill="url(#color-1)" fill-rule="evenodd" stroke="#000000" stroke-linecap="round" stroke-linejoin="round"/><path d="M182.7107,75.35405l101.0227,-2.23428c6.12046,-0.13536 11.16598,5.10221 11.31286,11.74342l1.10114,49.7878c0.14688,6.64121 -4.66218,12.09673 -10.78261,12.2321l-101.02266,2.23428c-6.12045,0.13536 -11.16601,-5.10221 -11.31289,-11.74341l-1.10114,-49.7878c-0.14688,-6.64121 4.66218,-12.09673 10.78264,-12.23209z" fill="#000000" fill-rule="evenodd" stroke="#000000" stroke-linecap="round" stroke-linejoin="round"/><path d="M183.31279,105.57098l101.0227,-2.23428c6.12046,-0.13536 11.11743,2.90732 11.20401,6.82215l0.6491,29.3487c0.08658,3.91484 -4.77101,7.17546 -10.89144,7.31082l-101.02266,2.23428c-6.12045,0.13536 -11.11746,-2.90732 -11.20405,-6.82215l-0.6491,-29.3487c-0.08658,-3.91484 4.77101,-7.17546 10.89148,-7.31083z" fill="url(#color-2)" fill-rule="evenodd" stroke="#000000" stroke-linecap="round" stroke-linejoin="round"/><path d="M210.67955,94.46888l-12.65817,-19.21664l26.93378,-0.78683l3.96617,32.40662l-15.90291,-21.94935z" fill="#262326" fill-rule="nonzero" stroke="none" stroke-linecap="butt" stroke-linejoin="miter"/><path d="M244.66437,101.36298l-7.48623,-27.35904l12.22718,-0.27042z" fill="#262326" fill-rule="nonzero" stroke="none" stroke-linecap="butt" stroke-linejoin="miter"/><path d="M172.49513,121.03392l-0.25352,-11.46299l16.40915,-1.31864z" fill="#262326" fill-rule="nonzero" stroke="none" stroke-linecap="butt" stroke-linejoin="miter"/><path d="M188.75735,106.1102l-16.44263,-0.19507l-0.14822,-6.70143z" data-paper-data="{&quot;index&quot;:null}" fill="#262326" fill-rule="nonzero" stroke="none" stroke-linecap="butt" stroke-linejoin="miter"/><path d="M171.97336,91.22714l0.45484,-5.36207l11.89487,10.63209z" fill="#262326" fill-rule="nonzero" stroke="none" stroke-linecap="butt" stroke-linejoin="miter"/><path d="M182.89583,149.17031c0,0 -3.16282,-0.00237 -5.74054,-1.45089c-3.02952,-1.70238 -3.73076,-3.30936 -3.73076,-3.30936l22.37154,-16.9331z" fill="#262326" fill-rule="nonzero" stroke="none" stroke-linecap="butt" stroke-linejoin="miter"/><path d="M270.1644,123.45223l25.69407,1.78971c0,0 0.60655,2.13718 -0.00473,6.55218c-0.72243,5.2179 -2.72404,7.52748 -2.72404,7.52748z" data-paper-data="{&quot;index&quot;:null}" fill="#262326" fill-rule="nonzero" stroke="none" stroke-linecap="butt" stroke-linejoin="miter"/><path d="M258.85282,122.71422l24.57051,24.11853l-13.59917,0.23529z" data-paper-data="{&quot;index&quot;:null}" fill="#262326" fill-rule="nonzero" stroke="none" stroke-linecap="butt" stroke-linejoin="miter"/><path d="M286.76147,73.01209c0,0 1.53272,0.1812 3.0043,1.63772c1.7295,1.71182 2.31629,3.20549 2.31629,3.20549l-8.23561,14.05461z" data-paper-data="{&quot;index&quot;:null}" fill="#262326" fill-rule="nonzero" stroke="none" stroke-linecap="butt" stroke-linejoin="miter"/></g><g fill-rule="nonzero" stroke="none" stroke-width="0" stroke-linecap="butt" stroke-linejoin="miter"><path d="M212.24555,150.32563c0,0 4.99567,8.75858 1.90761,8.79496c-2.30624,0.02714 -3.59043,0.40779 -5.89463,0.3979c-4.69366,-0.02014 1.05034,-9.11877 1.05034,-9.11877z" data-paper-data="{&quot;index&quot;:null}" fill="url(#color-3)"/><path d="M218.46397,151.99418c0,0 4.99567,8.75858 1.90761,8.79496c-2.30624,0.02714 -3.59043,0.40778 -5.89463,0.39789c-4.69366,-0.02014 1.05034,-9.11877 1.05034,-9.11877z" data-paper-data="{&quot;index&quot;:null}" fill="url(#color-4)"/><path d="M225.74691,154.08623c0,0 4.99567,8.75858 1.90761,8.79496c-2.30624,0.02714 -3.59044,0.4078 -5.89464,0.3979c-4.69366,-0.02014 1.05036,-9.11877 1.05036,-9.11877z" data-paper-data="{&quot;index&quot;:null}" fill="url(#color-5)"/><path d="M233.10088,155.62077c0,0 4.99567,8.75858 1.90761,8.79496c-2.30624,0.02714 -3.59043,0.40779 -5.89463,0.3979c-4.69366,-0.02014 1.05034,-9.11877 1.05034,-9.11877z" data-paper-data="{&quot;index&quot;:null}" fill="url(#color-6)"/><path d="M240.97858,155.24028c0,0 4.99567,8.75858 1.9076,8.79496c-2.30624,0.02714 -3.59044,0.4078 -5.89463,0.3979c-4.69366,-0.02014 1.05036,-9.11877 1.05036,-9.11877z" data-paper-data="{&quot;index&quot;:null}" fill="url(#color-7)"/><path d="M247.69447,153.00639c0,0 4.99567,8.75858 1.90762,8.79495c-2.30625,0.02715 -3.59044,0.4078 -5.89464,0.3979c-4.69366,-0.02014 1.05036,-9.11877 1.05036,-9.11877z" data-paper-data="{&quot;index&quot;:null}" fill="url(#color-8)"/><path d="M254.96038,150.84489c0,0 4.99567,8.75858 1.90761,8.79496c-2.30625,0.02715 -3.59044,0.4078 -5.89463,0.3979c-4.69366,-0.02014 1.05036,-9.11877 1.05036,-9.11877z" data-paper-data="{&quot;index&quot;:null}" fill="url(#color-9)"/><path d="M206.93908,182.15096c0,0 -3.27306,-10.2852 1.27081,-9.08977c2.23065,0.58683 3.37702,1.28732 5.60036,1.91052c2.97707,0.83446 -4.04995,8.01101 -4.04995,8.01101z" data-paper-data="{&quot;index&quot;:null}" fill="url(#color-10)"/><path d="M214.21275,186.50916c0,0 -3.27307,-10.28521 1.2708,-9.08977c2.23065,0.58683 3.37702,1.28732 5.60036,1.91052c2.97707,0.83446 -4.04995,8.01101 -4.04995,8.01101z" data-paper-data="{&quot;index&quot;:null}" fill="url(#color-11)"/><path d="M224.17206,188.30981c0,0 -5.84752,-9.03773 -1.15438,-9.10719c2.30396,-0.0341 3.59241,0.33298 5.89883,0.33594c3.0883,0.0039 -1.80713,8.81448 -1.80713,8.81448z" data-paper-data="{&quot;index&quot;:null}" fill="url(#color-12)"/><path d="M232.09008,188.23685c0,0 -5.99295,-8.93937 -1.3016,-9.08685c2.30305,-0.07243 3.59729,0.27324 5.90341,0.2378c3.08789,-0.04745 -1.66422,8.84343 -1.66422,8.84343z" data-paper-data="{&quot;index&quot;:null}" fill="url(#color-13)"/><path d="M240.44672,188.48622c0,0 -5.99295,-8.93937 -1.3016,-9.08686c2.30305,-0.07243 3.59729,0.27324 5.90341,0.2378c3.08789,-0.04745 -1.66422,8.84343 -1.66422,8.84343z" data-paper-data="{&quot;index&quot;:null}" fill="url(#color-14)"/><path d="M249.23924,185.93403c0,0 -7.59719,-7.58384 -3.02484,-8.65605c2.24463,-0.52638 3.58033,-0.44322 5.83509,-0.93393c3.0191,-0.65706 0.06952,9.00365 0.06952,9.00365z" data-paper-data="{&quot;index&quot;:null}" fill="url(#color-15)"/><path d="M257.15479,181.73804c0,0 -8.60417,-6.3833 -4.23479,-8.11859c2.14499,-0.85189 3.47832,-0.96659 5.63845,-1.78466c2.89241,-1.09541 1.36107,8.89838 1.36107,8.89838z" data-paper-data="{&quot;index&quot;:null}" fill="url(#color-16)"/></g><g fill-rule="nonzero" stroke="none" stroke-width="1.5" stroke-linecap="butt" stroke-linejoin="miter"><path d="M246.44163,136.33083c-1.36019,0.03081 -1.0062,-38.17125 6.49954,-37.99965c7.50574,0.17161 8.24916,38.56823 6.87328,38.30541c-0.42324,-0.08087 -4.06641,0.02066 -4.06641,0.02066c0,0 0.24724,-10.75638 0.25601,-16.51435c0.01516,-9.95537 -2.9506,-18.91254 -2.9506,-18.91254c0,0 -2.62404,7.82762 -3.07997,18.53252c-0.3195,7.50171 -0.07872,16.46091 -0.07872,16.46091c0,0 -2.86823,0.09373 -3.45311,0.10699z" data-paper-data="{&quot;index&quot;:null}" fill="url(#color-17)"/><path d="M202.23896,137.28865c-1.36019,0.03081 -1.0062,-38.17125 6.49954,-37.99965c7.50574,0.17161 8.24916,38.56823 6.87328,38.30541c-0.42323,-0.08087 -3.82171,0.01524 -3.82171,0.01524c0,0 -0.04616,-12.95325 -0.0374,-18.71122c0.01516,-9.95537 -2.90189,-16.71023 -2.90189,-16.71023c0,0 -2.16711,6.3486 -2.62306,17.05351c-0.3195,7.50171 -0.53566,17.93992 -0.53566,17.93992c0,0 -2.86823,0.09373 -3.45311,0.10699z" data-paper-data="{&quot;index&quot;:null}" fill="url(#color-18)"/></g></g></g></svg>